<svg width="100" height="20" viewBox="0 0 100 20" fill="none" xmlns="http://www.w3.org/2000/svg">
<g filter="url(#filter0_i_3_3650)">
<path d="M50 0L52.2451 6.90983H59.5106L53.6327 11.1803L55.8779 18.0902L50 13.8197L44.1221 18.0902L46.3673 11.1803L40.4894 6.90983H47.7549L50 0Z" fill="white"/>
</g>
<path d="M50 1.61804L51.7696 7.06434L51.8819 7.40983H52.2451H57.9717L53.3388 10.7758L53.0449 10.9894L53.1572 11.3348L54.9268 16.7812L50.2939 13.4152L50 13.2016L49.7061 13.4152L45.0732 16.7812L46.8428 11.3348L46.9551 10.9894L46.6612 10.7758L42.0283 7.40983H47.7549H48.1181L48.2304 7.06434L50 1.61804Z" stroke="#D0D0D0"/>
<g filter="url(#filter1_i_3_3650)">
<path d="M30 0L32.2451 6.90983H39.5106L33.6327 11.1803L35.8779 18.0902L30 13.8197L24.1221 18.0902L26.3673 11.1803L20.4894 6.90983H27.7549L30 0Z" fill="white"/>
</g>
<path d="M30 1.61804L31.7696 7.06434L31.8819 7.40983H32.2451H37.9717L33.3388 10.7758L33.0449 10.9894L33.1572 11.3348L34.9268 16.7812L30.2939 13.4152L30 13.2016L29.7061 13.4152L25.0732 16.7812L26.8428 11.3348L26.9551 10.9894L26.6612 10.7758L22.0283 7.40983H27.7549H28.1181L28.2304 7.06434L30 1.61804Z" stroke="#D0D0D0"/>
<g filter="url(#filter2_i_3_3650)">
<path d="M90 0L92.2451 6.90983H99.5106L93.6327 11.1803L95.8779 18.0902L90 13.8197L84.1221 18.0902L86.3673 11.1803L80.4894 6.90983H87.7549L90 0Z" fill="white"/>
</g>
<path d="M90 1.61804L91.7696 7.06434L91.8819 7.40983H92.2451H97.9717L93.3388 10.7758L93.0449 10.9894L93.1572 11.3348L94.9268 16.7812L90.2939 13.4152L90 13.2016L89.7061 13.4152L85.0732 16.7812L86.8428 11.3348L86.9551 10.9894L86.6612 10.7758L82.0283 7.40983H87.7549H88.1181L88.2304 7.06434L90 1.61804Z" stroke="#D0D0D0"/>
<g filter="url(#filter3_i_3_3650)">
<path d="M70 0L72.2451 6.90983H79.5106L73.6327 11.1803L75.8779 18.0902L70 13.8197L64.1221 18.0902L66.3673 11.1803L60.4894 6.90983H67.7549L70 0Z" fill="white"/>
</g>
<path d="M70 1.61804L71.7696 7.06434L71.8819 7.40983H72.2451H77.9717L73.3388 10.7758L73.0449 10.9894L73.1572 11.3348L74.9268 16.7812L70.2939 13.4152L70 13.2016L69.7061 13.4152L65.0732 16.7812L66.8428 11.3348L66.9551 10.9894L66.6612 10.7758L62.0283 7.40983H67.7549H68.1181L68.2304 7.06434L70 1.61804Z" stroke="#D0D0D0"/>
<g filter="url(#filter4_i_3_3650)">
<path d="M10 0L12.2451 6.90983H19.5106L13.6327 11.1803L15.8779 18.0902L10 13.8197L4.12215 18.0902L6.36729 11.1803L0.489435 6.90983H7.75486L10 0Z" fill="white"/>
</g>
<path d="M10 1.61804L11.7696 7.06434L11.8819 7.40983H12.2451H17.9717L13.3388 10.7758L13.0449 10.9894L13.1572 11.3348L14.9268 16.7812L10.2939 13.4152L10 13.2016L9.70611 13.4152L5.0732 16.7812L6.84282 11.3348L6.95507 10.9894L6.66118 10.7758L2.02828 7.40983H7.75486H8.11813L8.23039 7.06434L10 1.61804Z" stroke="#D0D0D0"/>
<defs>
<filter id="filter0_i_3_3650" x="40.4895" y="0" width="19.021" height="20.0902" filterUnits="userSpaceOnUse" color-interpolation-filters="sRGB">
<feFlood flood-opacity="0" result="BackgroundImageFix"/>
<feBlend mode="normal" in="SourceGraphic" in2="BackgroundImageFix" result="shape"/>
<feColorMatrix in="SourceAlpha" type="matrix" values="0 0 0 0 0 0 0 0 0 0 0 0 0 0 0 0 0 0 127 0" result="hardAlpha"/>
<feOffset dy="2"/>
<feGaussianBlur stdDeviation="2"/>
<feComposite in2="hardAlpha" operator="arithmetic" k2="-1" k3="1"/>
<feColorMatrix type="matrix" values="0 0 0 0 0.327018 0 0 0 0 0.327018 0 0 0 0 0.327018 0 0 0 0.5 0"/>
<feBlend mode="normal" in2="shape" result="effect1_innerShadow_3_3650"/>
</filter>
<filter id="filter1_i_3_3650" x="20.4895" y="0" width="19.021" height="20.0902" filterUnits="userSpaceOnUse" color-interpolation-filters="sRGB">
<feFlood flood-opacity="0" result="BackgroundImageFix"/>
<feBlend mode="normal" in="SourceGraphic" in2="BackgroundImageFix" result="shape"/>
<feColorMatrix in="SourceAlpha" type="matrix" values="0 0 0 0 0 0 0 0 0 0 0 0 0 0 0 0 0 0 127 0" result="hardAlpha"/>
<feOffset dy="2"/>
<feGaussianBlur stdDeviation="2"/>
<feComposite in2="hardAlpha" operator="arithmetic" k2="-1" k3="1"/>
<feColorMatrix type="matrix" values="0 0 0 0 0.327018 0 0 0 0 0.327018 0 0 0 0 0.327018 0 0 0 0.5 0"/>
<feBlend mode="normal" in2="shape" result="effect1_innerShadow_3_3650"/>
</filter>
<filter id="filter2_i_3_3650" x="80.4895" y="0" width="19.021" height="20.0902" filterUnits="userSpaceOnUse" color-interpolation-filters="sRGB">
<feFlood flood-opacity="0" result="BackgroundImageFix"/>
<feBlend mode="normal" in="SourceGraphic" in2="BackgroundImageFix" result="shape"/>
<feColorMatrix in="SourceAlpha" type="matrix" values="0 0 0 0 0 0 0 0 0 0 0 0 0 0 0 0 0 0 127 0" result="hardAlpha"/>
<feOffset dy="2"/>
<feGaussianBlur stdDeviation="2"/>
<feComposite in2="hardAlpha" operator="arithmetic" k2="-1" k3="1"/>
<feColorMatrix type="matrix" values="0 0 0 0 0.327018 0 0 0 0 0.327018 0 0 0 0 0.327018 0 0 0 0.5 0"/>
<feBlend mode="normal" in2="shape" result="effect1_innerShadow_3_3650"/>
</filter>
<filter id="filter3_i_3_3650" x="60.4895" y="0" width="19.021" height="20.0902" filterUnits="userSpaceOnUse" color-interpolation-filters="sRGB">
<feFlood flood-opacity="0" result="BackgroundImageFix"/>
<feBlend mode="normal" in="SourceGraphic" in2="BackgroundImageFix" result="shape"/>
<feColorMatrix in="SourceAlpha" type="matrix" values="0 0 0 0 0 0 0 0 0 0 0 0 0 0 0 0 0 0 127 0" result="hardAlpha"/>
<feOffset dy="2"/>
<feGaussianBlur stdDeviation="2"/>
<feComposite in2="hardAlpha" operator="arithmetic" k2="-1" k3="1"/>
<feColorMatrix type="matrix" values="0 0 0 0 0.327018 0 0 0 0 0.327018 0 0 0 0 0.327018 0 0 0 0.5 0"/>
<feBlend mode="normal" in2="shape" result="effect1_innerShadow_3_3650"/>
</filter>
<filter id="filter4_i_3_3650" x="0.489502" y="0" width="19.021" height="20.0902" filterUnits="userSpaceOnUse" color-interpolation-filters="sRGB">
<feFlood flood-opacity="0" result="BackgroundImageFix"/>
<feBlend mode="normal" in="SourceGraphic" in2="BackgroundImageFix" result="shape"/>
<feColorMatrix in="SourceAlpha" type="matrix" values="0 0 0 0 0 0 0 0 0 0 0 0 0 0 0 0 0 0 127 0" result="hardAlpha"/>
<feOffset dy="2"/>
<feGaussianBlur stdDeviation="2"/>
<feComposite in2="hardAlpha" operator="arithmetic" k2="-1" k3="1"/>
<feColorMatrix type="matrix" values="0 0 0 0 0.327018 0 0 0 0 0.327018 0 0 0 0 0.327018 0 0 0 0.5 0"/>
<feBlend mode="normal" in2="shape" result="effect1_innerShadow_3_3650"/>
</filter>
</defs>
</svg>
