<svg width="80" height="15" viewBox="0 0 80 15" fill="none" xmlns="http://www.w3.org/2000/svg">
<path d="M23.3334 1.80196L24.3498 5.32111L24.4541 5.68237H24.8302H28.272L25.4388 7.99812L25.1833 8.20696L25.2749 8.52399L26.3266 12.1655L23.6498 9.97761L23.3334 9.71898L23.017 9.97761L20.3403 12.1655L21.392 8.52399L21.4835 8.20696L21.228 7.99812L18.3948 5.68237H21.8367H22.2127L22.317 5.32111L23.3334 1.80196Z" fill="#F9DA92" stroke="#F9DA92"/>
<path d="M6.66667 1.80196L7.68306 5.32111L7.7874 5.68237H8.16343H11.6053L8.77205 7.99812L8.51654 8.20696L8.60811 8.52399L9.65983 12.1655L6.98309 9.97761L6.66667 9.71898L6.35024 9.97761L3.6735 12.1655L4.72522 8.52399L4.81679 8.20696L4.56129 7.99812L1.72808 5.68237H5.16991H5.54593L5.65027 5.32111L6.66667 1.80196Z" fill="#F9DA92" stroke="#F9DA92"/>
<path d="M39.9999 1.80196L41.0163 5.32111L41.1207 5.68237H41.4967H44.9385L42.1053 7.99812L41.8498 8.20696L41.9414 8.52399L42.9931 12.1655L40.3163 9.97761L39.9999 9.71898L39.6835 9.97761L37.0068 12.1655L38.0585 8.52399L38.15 8.20696L37.8945 7.99812L35.0613 5.68237H38.5032H38.8792L38.9835 5.32111L39.9999 1.80196Z" fill="#F9DA92" stroke="#F9DA92"/>
<path d="M56.6667 1.80196L57.6831 5.32111L57.7874 5.68237H58.1634H61.6053L58.772 7.99812L58.5165 8.20696L58.6081 8.52399L59.6598 12.1655L56.9831 9.97761L56.6667 9.71898L56.3502 9.97761L53.6735 12.1655L54.7252 8.52399L54.8168 8.20696L54.5613 7.99812L51.7281 5.68237H55.1699H55.5459L55.6503 5.32111L56.6667 1.80196Z" fill="#F9DA92" stroke="#F9DA92"/>
<path d="M73.3334 1.80196L74.3498 5.32111L74.4541 5.68237H74.8302H78.272L75.4388 7.99812L75.1833 8.20696L75.2749 8.52399L76.3266 12.1655L73.6498 9.97761L73.3334 9.71898L73.017 9.97761L70.3403 12.1655L71.392 8.52399L71.4835 8.20696L71.228 7.99812L68.3948 5.68237H71.8367H72.2127L72.317 5.32111L73.3334 1.80196Z" fill="#D0D0D0" stroke="#D0D0D0"/>
</svg>
